<svg width="247" height="274" viewBox="0 0 247 274" fill="none" xmlns="http://www.w3.org/2000/svg">
<path d="M115.5 24.5C122.663 22.7204 134.248 18.6248 141.889 20.8889C149.85 23.2476 158.415 24.8096 166.806 23.2222C178.577 20.9952 189.602 22.9119 201.472 22.4722C207.541 22.2475 213.583 21.5 219.667 21.5C221.289 21.5 226.131 23.1079 226.5 22" stroke="black" stroke-width="3" stroke-linecap="round"/>
<path d="M117.5 25C115.734 33.8865 116.5 39.3367 116.5 47.6111C116.5 51.3888 116.751 58.7491 114 61.5" stroke="black" stroke-width="3" stroke-linecap="round"/>
<path d="M117.5 61.5C103.736 64.2358 90 70.0502 90 86C90 92.7352 93.7625 98.2855 97.2222 103.722C99.4851 107.278 100.579 114.711 105.5 115C109.162 115.215 114.589 116.443 118 114.25C124.133 110.308 127.722 103.579 130.111 96.8889C133.751 86.6979 140.806 60.0486 121 65" stroke="black" stroke-width="3" stroke-linecap="round"/>
<path d="M109 113C109 136.933 108.5 161.303 108.5 185" stroke="black" stroke-width="3" stroke-linecap="round"/>
<path d="M109.5 157.5C117.868 153.125 124.197 149.543 131.278 143.75C135.076 140.643 140.289 138.933 143.611 135.611C147.494 131.729 146.471 129.615 148.25 124.278C149.288 121.162 156.331 109.022 161 115.889C162.698 118.386 160.131 119.665 159.528 121.778C158.904 123.962 163.216 122.318 164.472 122.528C166.804 122.916 164.937 127.404 164.389 128.5C162.948 131.382 165.399 132.438 165.889 135.5C166.148 137.121 164.084 141.924 163.222 143.278C161.091 146.627 159.023 149.5 154.75 149.5C151.597 149.5 149.612 148.73 148 146.111C147.636 145.52 147.271 138.458 146.5 140" stroke="black" stroke-width="3" stroke-linecap="round"/>
<path d="M106.5 157.5C97.3259 151.098 87.8933 145.477 80.5 137.028C77.3556 133.434 72 133.543 72 128.5C72 123.782 73.6886 120.787 68.9722 117.25C65.8609 114.916 59.8758 112 56 112C49.6486 112 52.9097 119.04 50.75 120C43.9015 123.044 47.3619 127.667 47.5 132.5C47.7877 142.568 70 138.763 70 136" stroke="black" stroke-width="3" stroke-linecap="round"/>
<path d="M107.5 184C109.358 189.28 110.616 193.72 113.889 198C115.756 200.442 117.542 202.804 118.778 205.667C120.578 209.836 124.31 213.039 126.028 217.333C128.959 224.661 132.308 230.774 137.111 237C138.736 239.106 139.52 241.369 140.389 243.889C140.746 244.923 140.03 246.609 140.75 247.472C141.766 248.691 150.749 232.853 152.111 231C156.524 224.998 162.669 219.807 166.611 213.5C168.314 210.775 170.271 214.505 170.611 215.611C171.678 219.077 170.145 220.847 168.778 223.972C166.654 228.826 164.558 234.054 160.25 237.5C158.675 238.76 161.274 243.064 160.972 244.722C160.594 246.804 158.339 250.254 156 250.5C152.783 250.839 149.235 255.84 146.75 252.25C144.738 249.344 144.849 245 141.5 245" stroke="black" stroke-width="3" stroke-linecap="round"/>
<path d="M106.5 183.5C102.338 197.174 97.8581 207.866 90.2778 219.778C89.1021 221.625 80.8368 238.687 78.25 237.25C74.2186 235.01 69.3186 234.192 65.8889 230.889C62.231 227.367 57.4029 224.715 52.9722 222.278C48.5448 219.843 44.4825 216.852 40 214.611C37.3956 213.309 36.9396 207.521 34.2778 206C31.4316 204.374 29.8846 201.451 26.25 204.278C21.8934 207.666 20.5 213.648 20.5 218.889C20.5 229.152 29.7413 230 38.8889 230C41.3649 230 42.7968 230.006 44.8889 231.5C48.2572 233.906 51.093 234.038 54.9722 235.25C57.1302 235.924 59.1614 236.264 60.7778 238.028C61.9072 239.26 63.6645 241.898 65.5 242C67.0262 242.085 68.5822 242 70.1111 242C73.5916 242 74.4524 240.335 77.2778 239.528C79.1377 238.996 83.5 236.04 83.5 234.5" stroke="black" stroke-width="3" stroke-linecap="round"/>
<path d="M106.5 74C105.414 77.6424 100.422 86 106.75 86C109.216 86 108.377 84.9819 109.611 83.6111C113.945 78.7955 108.009 79.0608 107.5 75.5" stroke="black" stroke-width="3" stroke-linecap="round"/>
<path d="M124 75.5C121.351 82.8692 119.543 91.3959 127 83.5C128.108 82.3271 129 81.4361 129 79.75C129 76.6086 126.936 79.0159 125 79.5" stroke="black" stroke-width="3" stroke-linecap="round"/>
</svg>
