<svg width="290" height="274" viewBox="0 0 290 274" fill="none" xmlns="http://www.w3.org/2000/svg">
<path d="M115 24.2766C122.163 22.497 133.748 18.4013 141.389 20.6654C149.35 23.0242 157.915 24.5862 166.306 22.9988C178.077 20.7718 189.102 22.6884 200.972 22.2488C207.041 22.024 213.083 21.2766 219.167 21.2766C220.789 21.2766 225.631 22.8845 226 21.7766" stroke="black" stroke-width="3" stroke-linecap="round"/>
<path d="M117 24.7766C115.234 33.663 116 39.1132 116 47.3877C116 51.1653 116.251 58.5257 113.5 61.2766" stroke="black" stroke-width="3" stroke-linecap="round"/>
<path d="M117 61.2766C103.236 64.0123 89.5 69.8267 89.5 85.7766C89.5 92.5118 93.2625 98.062 96.7222 103.499C98.9851 107.055 100.079 114.487 105 114.777C108.662 114.992 114.089 116.22 117.5 114.027C123.633 110.084 127.222 103.356 129.611 96.6654C133.251 86.4744 140.306 59.8251 120.5 64.7766" stroke="black" stroke-width="3" stroke-linecap="round"/>
<path d="M108.5 112.777C108.5 136.709 108 161.079 108 184.777" stroke="black" stroke-width="3" stroke-linecap="round"/>
<path d="M109 157.277C117.368 152.901 123.697 149.32 130.778 143.527C134.576 140.419 139.789 138.71 143.111 135.388C146.994 131.505 145.971 129.392 147.75 124.054C148.788 120.939 155.831 108.799 160.5 115.665C162.198 118.163 159.631 119.441 159.028 121.554C158.404 123.739 162.716 122.095 163.972 122.304C166.304 122.693 164.437 127.18 163.889 128.277C162.448 131.158 164.899 132.215 165.389 135.277C165.648 136.897 163.584 141.7 162.722 143.054C160.591 146.403 158.523 149.277 154.25 149.277C151.097 149.277 149.112 148.507 147.5 145.888C147.136 145.297 146.771 138.234 146 139.777" stroke="black" stroke-width="3" stroke-linecap="round"/>
<path d="M106 157.277C96.8259 150.874 87.3933 145.254 80 136.804C76.8556 133.211 71.5 133.319 71.5 128.277C71.5 123.559 73.1886 120.564 68.4722 117.027C65.3609 114.693 59.3758 111.777 55.5 111.777C49.1486 111.777 52.4097 118.817 50.25 119.777C43.4015 122.82 46.8619 127.443 47 132.277C47.2877 142.344 69.5 138.54 69.5 135.777" stroke="black" stroke-width="3" stroke-linecap="round"/>
<path d="M107 183.777C108.858 189.056 110.116 193.497 113.389 197.777C115.256 200.219 117.042 202.581 118.278 205.443C120.078 209.612 123.81 212.816 125.528 217.11C128.459 224.437 131.808 230.551 136.611 236.777C138.236 238.882 139.02 241.146 139.889 243.665C140.246 244.7 139.53 246.385 140.25 247.249C141.266 248.468 150.249 232.629 151.611 230.777C156.024 224.774 162.169 219.584 166.111 213.277C167.814 210.551 169.771 214.282 170.111 215.388C171.178 218.854 169.645 220.623 168.278 223.749C166.154 228.602 164.058 233.83 159.75 237.277C158.175 238.537 160.774 242.841 160.472 244.499C160.094 246.581 157.839 250.03 155.5 250.277C152.283 250.615 148.735 255.616 146.25 252.027C144.238 249.12 144.349 244.777 141 244.777" stroke="black" stroke-width="3" stroke-linecap="round"/>
<path d="M106 183.277C101.838 196.95 97.3581 207.642 89.7778 219.554C88.6021 221.402 80.3368 238.464 77.75 237.027C73.7186 234.787 68.8186 233.968 65.3889 230.665C61.731 227.143 56.9029 224.491 52.4722 222.054C48.0448 219.619 43.9825 216.629 39.5 214.388C36.8956 213.085 36.4396 207.298 33.7778 205.777C30.9316 204.15 29.3846 201.227 25.75 204.054C21.3934 207.443 20 213.425 20 218.665C20 228.928 29.2413 229.777 38.3889 229.777C40.8649 229.777 42.2968 229.782 44.3889 231.277C47.7572 233.682 50.593 233.814 54.4722 235.027C56.6302 235.701 58.6614 236.041 60.2778 237.804C61.4072 239.036 63.1645 241.675 65 241.777C66.5262 241.861 68.0822 241.777 69.6111 241.777C73.0916 241.777 73.9524 240.112 76.7778 239.304C78.6377 238.773 83 235.816 83 234.277" stroke="black" stroke-width="3" stroke-linecap="round"/>
<path d="M106 73.7766C104.914 77.419 99.9225 85.7766 106.25 85.7766C108.716 85.7766 107.877 84.7585 109.111 83.3877C113.445 78.5721 107.509 78.8374 107 75.2766" stroke="black" stroke-width="3" stroke-linecap="round"/>
<path d="M123.5 75.2766C120.851 82.6457 119.043 91.1725 126.5 83.2766C127.608 82.1037 128.5 81.2126 128.5 79.5266C128.5 76.3852 126.436 78.7925 124.5 79.2766" stroke="black" stroke-width="3" stroke-linecap="round"/>
<path d="M118 85.2766C117.896 85.6952 115.395 97.7242 114.5 97.2766" stroke="black" stroke-width="3" stroke-linecap="round"/>
<path d="M105.5 105.277C112.6 101.751 114.095 99.6511 119.111 104.165C120.066 105.025 121 107.883 121 107.277" stroke="black" stroke-width="3" stroke-linecap="round"/>
<path d="M225.5 23.2766C222.518 34.9119 221 45.2772 221 57.2766C221 69.9096 221.5 82.736 221.5 95.3877C221.5 101.612 222 107.761 222 113.971C222 120.73 220.5 127.344 220.5 134.165C220.5 139.804 220.5 145.443 220.5 151.082C220.5 156.113 219 160.958 219 165.777C219 169.259 220.703 171.777 216.5 171.777C213.53 171.777 208.202 171.25 205.5 172.388C197.226 175.872 190.894 177.769 185.889 185.777C183.447 189.683 178.524 192.344 175.389 195.165C173.477 196.886 170.651 198.463 169 200.527C167.684 202.172 164 205.891 164 202.777" stroke="black" stroke-width="3" stroke-linecap="round"/>
<path d="M217.5 169.777C224.086 172.394 229.288 173.714 234.389 177.888C236.646 179.734 240.21 179.8 242.667 182.165C244.983 184.396 247.501 184.703 249.111 187.777C252.22 193.711 257.148 198.424 261.889 203.165C263.95 205.226 267.618 207.383 268.722 210.11C270.172 213.692 268 214.548 268 212.777" stroke="black" stroke-width="3" stroke-linecap="round"/>
<path d="M167 203.277C174.596 204.409 185.204 207.009 193 205.277C202.527 203.159 212.78 203.277 222.528 203.277C226.976 203.277 231.727 201.911 236.056 202.304C240.303 202.691 244.317 203.277 248.611 203.277C252.666 203.277 260.259 207.018 262.5 204.777" stroke="black" stroke-width="3" stroke-linecap="round"/>
<path d="M174 201.277C178.117 198.181 183.418 194.854 186.111 190.277C186.663 189.338 188.751 186.721 189.75 186.277C191.202 185.631 198.764 179.528 196 183.165C193.313 186.701 190.263 192.466 186.75 195.277C183.531 197.852 181.424 205.985 187 197.777C190.535 192.572 196.245 184.446 202.25 181.777C205.02 180.545 203.079 181.244 201.25 183.777C198.076 188.171 193.01 192.652 190.889 197.665C190.484 198.622 188.701 200.337 190.111 198.277C192.013 195.497 193.763 192.633 195.889 189.999C198.69 186.528 201.631 183.192 205 180.304C208.985 176.889 203.955 182.69 202.889 183.999C199.556 188.089 196.564 193.037 194.222 197.721C193.568 199.028 190.526 202.224 191.278 200.971C193.64 197.033 196.278 193.623 199.5 190.277C203.142 186.495 207.006 182.553 210.389 178.554C212.916 175.567 216.061 171.676 212.5 177.527C208.665 183.827 205.973 190.834 202.028 196.999C201.253 198.209 197.183 203.85 200.5 199.888C206.18 193.103 209.829 185.354 217 179.777C222.196 175.736 217.487 180.154 215.611 182.277C212.586 185.699 210.166 189.713 208.111 193.777C206.971 196.031 204.722 203.08 204.722 200.554C204.722 193.189 216.72 184.483 221.944 181.054C222.034 180.996 225.691 179.359 225.194 180.054C221.159 185.704 215.943 190.774 211.75 196.388C204.644 205.903 211.424 196.858 214.833 193.054C218.125 189.381 221.568 185.64 225.389 182.499C226.385 181.68 228.372 180.665 226.889 182.777C223.809 187.16 213.922 199.796 217.556 195.86C219.82 193.407 225.286 183.332 229.222 183.332C229.9 183.332 227.588 188.506 227.278 188.999C226.4 190.392 219.518 200.931 223.5 195.527C225.73 192.5 229.717 184.277 234.25 184.277C236.371 184.277 218.009 207.056 225.389 197.999C228.141 194.621 230.63 191.196 234 188.388C235.125 187.45 239.359 184.959 237.389 188.388C236.004 190.799 233.689 193.27 232.833 195.943C232.156 198.06 236.609 193.553 238.25 192.054C238.66 191.68 241.577 189.561 241.694 191.082C241.867 193.325 236.996 198.714 237.861 196.638C238.467 195.184 243.831 187.762 243.389 191.443C243.139 193.529 240.475 197.302 243.111 194.665C247.34 190.437 242.885 198.38 243.611 198.165C247.94 196.883 246.185 199.277 249.25 199.277C249.88 199.277 249.678 201.523 250.028 200.999C250.677 200.025 251.244 200.465 251.778 200.999C252.619 201.84 255.563 202.572 255.889 200.943C256.433 198.223 251.979 199.81 250.5 198.054C248.192 195.314 249.283 195.322 244.944 195.804C242.597 196.065 239.137 197.853 236.75 196.527C234.671 195.371 231.502 199.056 230.611 198.165C230.064 197.619 231.02 195.532 229.389 196.499C227.999 197.322 225.927 198.277 224.278 198.277C221.632 198.277 214.921 201.367 216.389 199.165C216.757 198.613 213.403 199.573 213 199.665C211.356 200.041 211.086 198.837 210 198.777C207.816 198.655 206.307 195.469 205.944 195.61C202.951 196.774 198.586 202.459 201 197.027C201.319 196.309 194.261 202.833 198.389 197.277C202.067 192.325 193.39 200.169 193.611 199.777C195.087 197.152 189.018 201.128 187.028 201.999C184.286 203.198 179.176 205.101 183.611 200.665C188.346 195.931 193.04 191.022 198.25 186.777C202.355 183.432 207.697 178.777 213 178.777C216.01 178.777 216.048 180.469 215.389 182.777C213.658 188.835 225.745 172.945 227.028 179.999C227.562 182.934 230.999 179.981 232.778 180.304C237.662 181.192 235.921 183.345 235.111 187.277C234.796 188.806 238.392 186.917 238.972 189.527C239.192 190.515 239.289 194.132 240 193.777" stroke="#3CF90D" stroke-width="3" stroke-linecap="round"/>
<path d="M148.5 242.777C151.933 239.118 162.229 228.17 158.5 231.527C155.975 233.799 149.992 243.428 155.778 234.888C159.928 228.761 156.302 233.883 154.111 236.165C152.531 237.812 157.972 227.917 157.25 230.082C155.424 235.559 159.104 229.241 160.667 227.11C162.022 225.262 163.681 225.068 164.5 223.277C165.696 220.66 165.638 219.304 165.5 222.888C165.348 226.831 166 223.362 166 221.554C166 219.299 164.007 227.418 163.5 228.721C162.484 231.335 160.949 234.245 159.222 236.443C158.194 237.752 159.561 234.258 159.5 233.832C159.008 230.39 153.856 246.488 155.722 243.554C158.339 239.443 155.596 241.406 154.5 244.693C154.207 245.573 154.271 243.55 154.389 243.165C155.04 241.05 153.335 242.699 152.778 243.388C147.952 249.348 152.847 241.903 151.5 243.888C148.05 248.972 151.444 244.815 151.444 242.582C151.444 241.706 150.619 244.157 150 244.777C149.042 245.735 148.932 244.798 149.25 243.971C149.322 243.783 150.072 240.978 149.889 240.999C149.575 241.034 148.053 243.559 148.389 242.777C153.105 231.772 144.704 245.822 151.806 235.443C155.897 229.463 161.726 225.168 165.389 219.11C165.692 218.608 168.4 215.583 167.5 217.277C165.458 221.12 164.821 225.442 163.25 229.527C161.794 233.313 157.825 245.253 155 246.665C153.722 247.304 152.537 248.848 151 248.165C149.187 247.359 149.977 244.02 149.222 243.804C146.755 243.099 147.366 249.488 146.972 250.471C146.363 251.994 146.865 246.686 145.5 245.777" stroke="#815707" stroke-width="3" stroke-linecap="round"/>
<path d="M28.5 213.777C33.5108 221.49 34.1645 223.277 42 223.277C45.0334 223.277 46.9848 224.186 49.5 225.665C52.2513 227.284 54.1393 229.116 57 230.388C59.242 231.384 60.3979 235.777 62.75 235.777C63.637 235.777 69.5927 236.646 68.7222 235.527C66.7358 232.973 63.591 232.213 61.5 229.999C60.4917 228.931 60.719 227.475 59.3889 226.554C57.3351 225.132 55.8827 225.675 53.6111 224.777C51.7082 224.024 49.9755 223.046 48 222.388C46.4614 221.875 42.7134 224.817 41.2778 222.971C40.6053 222.106 37.928 212.832 36.7222 212.832C34.662 212.832 37.8128 216.247 35.4444 215.721C33.8972 215.377 29.6049 211.141 31 213.777C32.113 215.879 33.5019 222.879 32.3889 220.777C30.9349 218.03 30.4393 214.315 30.5 211.221C30.5778 207.255 33.985 211.049 31.8889 211.888C29.0015 213.043 28.4324 209.869 27.2778 208.054C26.7749 207.264 27 211.589 27 212.527C27 213.633 25.2046 217.426 25.75 217.971C26.0662 218.287 27 210.845 27 210.027C27 206.885 25.1122 208.645 25 210.777C24.8267 214.068 24.7371 223.951 25 220.665C25.2727 217.257 26.4213 206.267 23.2778 215.249C22.0334 218.804 22.6563 222.839 26.2778 221.804C30.5512 220.583 30.7008 218.408 31.75 213.582C32.362 210.767 29.3554 222.721 31.2222 222.721C33.2013 222.721 31.0772 212.243 31 210.777C30.6078 203.326 30.9644 214.358 31 216.777C31.043 219.7 31.2178 220.499 32.7778 222.665C33.5778 223.777 37.1201 225.149 34.75 224.027C33.0205 223.207 31.6612 221.978 30.5 220.527C29.826 219.684 27.4882 221.862 29.5 223.443C32.9644 226.165 36.5374 219.687 39.5 219.777C40.29 219.8 42.4464 223.526 42.6667 223.054C42.747 222.882 39.1261 219.649 41.1111 220.999C44.9234 223.591 51.6199 226.163 44.5 220.527C40.5619 217.409 53.327 229.304 48.7778 225.582C46.754 223.926 44.3362 222.255 41.7778 221.582C39.1621 220.894 39.2087 223.985 40.5 225.277C41.8145 226.591 49.5682 228.68 51.5 228.777C59.1768 229.16 50.1231 228.892 52.8055 229.304C55.082 229.655 58.1048 229.219 59.7222 231.027C60.2422 231.608 62.7688 233.631 62.9444 234.027C64.2944 237.064 64.1484 237.601 67.5 239.277" stroke="#815707" stroke-width="3" stroke-linecap="round"/>
<path d="M152 140.277C152.283 134.591 152.5 128.959 152.5 123.277C152.5 119.991 153.461 131.087 153.5 132.554C153.675 139.198 155.747 130.133 157.5 128.277C159.874 125.763 154.879 134.686 153.889 137.999C153.611 138.928 151.748 145.78 153.75 141.777C155.851 137.575 156 126.478 156 137.804C156 142.179 156.287 145.72 158.222 139.388C158.49 138.511 159 133.916 159 136.665C159 143.248 156.667 139.332 159.5 136.499C160.365 135.634 158.799 139.252 159.611 140.165C159.926 140.52 158.966 135.381 158.75 134.804C158.019 132.855 156.968 127.034 160.25 126.304C161.07 126.122 159.554 127.424 159.25 128.277C158.517 130.328 158.332 137.505 156.5 138.277C155.769 138.584 151.559 139.599 151.389 139.277C150.722 138.018 150.69 132.707 150.25 132.804C147.447 133.427 148 135.2 148 131.027C148 128.285 150.547 124.568 152 122.388C158.772 112.23 153.439 129.18 152.472 134.499C152.032 136.923 148.526 145.777 153.75 145.777C154.833 145.777 157.27 141.507 158.25 140.527C160.125 138.651 160.622 137.899 159.5 136.777C157.631 134.907 158.066 131.366 159.111 129.277C159.544 128.411 163.395 124.777 162.25 124.777C159.166 124.777 155.476 130.936 156.25 133.721C157.349 137.676 158.01 137.169 156.111 140.777C153.698 145.361 155.872 143.946 158.389 140.777C160.228 138.461 162.409 136.036 159.222 133.304C156.654 131.103 158.842 129.08 160 127.054C161.413 124.581 153.785 130.175 151.389 130.665C147.328 131.496 152.008 124.76 153 122.777C153.268 122.24 158.13 114.989 154 117.054C146.215 120.947 146 131.077 146 138.277" stroke="#DAFC08" stroke-width="3" stroke-linecap="round"/>
<path d="M53 128.777C54.1374 127.366 60.7217 113.214 63.25 121.304C63.7615 122.941 64.3814 129.942 62.5 130.749C60.5547 131.582 56.7085 132.77 54.5 131.665C52.2788 130.555 50.4464 126.277 48 126.277C44.5527 126.277 48.3973 130.504 49.75 130.804C51.9771 131.299 55.4987 131.775 57.25 133.527C64.1573 140.434 63.9211 127.149 62.3889 123.165C62.2004 122.675 57.7573 115.001 57.0278 117.554C56.192 120.48 57.1593 122.811 56 125.999C54.8003 129.298 52.6244 122.763 56 120.888C59.8784 118.733 59.655 122.154 62.2778 124.777C63.8848 126.384 64.3644 129.668 65.75 130.777C66.3616 131.266 65.5 125.533 65.5 123.277C65.5 119.332 62.9237 125.631 60.7778 127.777C59.0497 129.505 55.1012 132.945 53.5 130.277" stroke="#DAFC08" stroke-width="3" stroke-linecap="round"/>
<path d="M106 93.2766C108.637 90.4272 112.595 87.4733 113.472 83.5266C113.708 82.4659 112.7 82.2985 113.611 81.3877C114.702 80.2969 114.44 77.9855 115.25 76.5266C117.732 72.0593 112.1 90.2704 113.028 83.7766C113.458 80.7683 114.5 78.0792 114.5 75.0266C114.5 71.7887 112.92 74.0778 113.889 71.3877C114.27 70.3302 113.64 73.0649 115.25 71.7766C116.206 71.0114 115.5 77.6706 115.5 72.7766" stroke="#FC08F2" stroke-width="3" stroke-linecap="round"/>
<path d="M116.5 74.7766C120.134 72.4159 128.26 65.4499 128.5 69.7766C128.582 71.2512 128.154 73.969 129.111 75.1654C130.663 77.1049 129.511 82.603 128.972 85.0266C128.072 89.0769 128.205 91.7933 125.111 94.8877C120.854 99.1452 126.761 84.4399 122.5 94.0266C121.906 95.3636 119.916 89.2251 121.75 92.5266C122.584 94.0275 122.993 91.9914 123.389 92.3877C123.971 92.9695 122.787 94.6544 123.028 95.4988C124.77 101.597 121.301 94.6896 121.5 98.2766C121.617 100.376 123.021 101.635 124 99.5543C124.658 98.156 124.264 96.758 125.222 95.5266C125.472 95.2049 124.326 95.7433 124 95.4988C122.506 94.3781 123.588 92.2106 121.722 93.2766C119.053 94.8018 121.541 94.3592 122 95.2766" stroke="#FC08F2" stroke-width="3" stroke-linecap="round"/>
<path d="M104.5 96.2766C102.216 94.8648 96.3585 92.5832 95.1111 89.7766C95.0665 89.6761 94.6984 87.9789 94.5278 88.8321C94.2586 90.1781 95.0215 92.3977 95.7222 93.4988C97.424 96.173 99.853 96.0638 100 92.3877C100.056 90.9918 100.366 93.5121 100.778 93.2766C102.301 92.4059 99.2171 92.3743 98.7778 92.2488C97.5925 91.9101 99.761 92.008 99.6945 91.971C98.1042 91.0875 97.1108 89.576 96.25 88.0266C94.791 85.4004 94.1978 82.6054 95.3889 79.7766C96.6468 76.789 98.7353 75.6549 97.6111 80.2766C97.0301 82.6652 98 91.0903 98 84.4988C98 80.893 98.2477 78.7869 98.9722 75.5266C99.1497 74.7282 97.9152 81.7915 98 84.1654C98.0819 86.4578 97.5231 92.7894 99.75 94.0266C103.796 96.2745 101.434 90.5647 102.111 89.8877C102.905 89.0933 104.549 90.4225 105.5 89.8877C106.042 89.5826 103.991 88.2766 103.5 88.2766C102.332 88.2766 103.91 90.3097 103.972 90.8043C104.204 92.6576 103.41 94.3071 103.028 96.0266C102.603 97.9367 103.691 95.7811 104.694 94.5543C105.092 94.0687 101.544 97.4648 100.806 98.4988C100.109 99.4739 102.386 96.6546 103.389 95.9988C104.967 94.9673 104.774 97.2249 105.722 96.2766C106.531 95.4677 107.9 92.2534 107.389 93.2766C106.77 94.514 105.543 96.1908 104 96.2766C97.934 96.6136 100.056 86.815 98.1111 82.2766C95.976 77.2946 101.444 72.468 105.25 70.7766C107.156 69.9294 110.339 68.3903 112.5 68.2766C116.959 68.0419 114.328 69.4916 114 72.2766C113.751 74.3908 109.11 69.0971 111.778 72.5266C112.771 73.8037 112.338 74.7342 110.75 73.4988C109.423 72.4663 112.751 73.4177 112.972 73.971C113.523 75.3468 112.484 70.884 111.5 69.7766C110.484 68.6336 112.876 67.3357 114 67.2766C117.167 67.1098 118.431 66.6545 117.472 70.971C117.233 72.0494 114.721 75.8334 117.389 73.1654C118.134 72.4199 123.994 70.7766 121 70.7766C118.252 70.7766 118.5 75.7731 118.5 77.5266C118.5 81.4028 118.374 80.2183 118.972 77.5266C120.562 70.3738 116.469 68.2766 110.5 68.2766" stroke="#FC08F2" stroke-width="3" stroke-linecap="round"/>
<rect x="0.5" y="0.5" width="288.221" height="272.317" rx="4.5" stroke="#7B61FF" stroke-dasharray="10 5"/>
</svg>
