<svg width="290" height="274" viewBox="0 0 290 274" fill="none" xmlns="http://www.w3.org/2000/svg">
<path d="M115 24.2766C122.163 22.497 133.748 18.4013 141.389 20.6654C149.35 23.0242 157.915 24.5862 166.306 22.9988C178.077 20.7718 189.102 22.6884 200.972 22.2488C207.041 22.024 213.083 21.2766 219.167 21.2766C220.789 21.2766 225.631 22.8845 226 21.7766" stroke="black" stroke-width="3" stroke-linecap="round"/>
<path d="M117 24.7766C115.234 33.663 116 39.1132 116 47.3877C116 51.1653 116.251 58.5257 113.5 61.2766" stroke="black" stroke-width="3" stroke-linecap="round"/>
<path d="M225.5 23.2766C222.518 34.9119 221 45.2772 221 57.2766C221 69.9096 221.5 82.736 221.5 95.3877C221.5 101.612 222 107.761 222 113.971C222 120.73 220.5 127.344 220.5 134.165C220.5 139.804 220.5 145.443 220.5 151.082C220.5 156.113 219 160.958 219 165.777C219 169.259 220.703 171.777 216.5 171.777C213.53 171.777 208.202 171.25 205.5 172.388C197.226 175.872 190.894 177.769 185.889 185.777C183.447 189.683 178.524 192.344 175.389 195.165C173.477 196.886 170.651 198.463 169 200.527C167.684 202.172 164 205.891 164 202.777" stroke="black" stroke-width="3" stroke-linecap="round"/>
<path d="M217.5 169.777C224.086 172.394 229.288 173.714 234.389 177.888C236.646 179.734 240.21 179.8 242.667 182.165C244.983 184.396 247.501 184.703 249.111 187.777C252.22 193.711 257.148 198.424 261.889 203.165C263.95 205.226 267.618 207.383 268.722 210.11C270.172 213.692 268 214.548 268 212.777" stroke="black" stroke-width="3" stroke-linecap="round"/>
<path d="M167 203.277C174.596 204.409 185.204 207.009 193 205.277C202.527 203.159 212.78 203.277 222.528 203.277C226.976 203.277 231.727 201.911 236.056 202.304C240.303 202.691 244.317 203.277 248.611 203.277C252.666 203.277 260.259 207.018 262.5 204.777" stroke="black" stroke-width="3" stroke-linecap="round"/>
<path d="M174 201.277C178.117 198.181 183.418 194.854 186.111 190.277C186.663 189.338 188.751 186.721 189.75 186.277C191.202 185.631 198.764 179.528 196 183.165C193.313 186.701 190.263 192.466 186.75 195.277C183.531 197.852 181.424 205.985 187 197.777C190.535 192.572 196.245 184.446 202.25 181.777C205.02 180.545 203.079 181.244 201.25 183.777C198.076 188.171 193.01 192.652 190.889 197.665C190.484 198.622 188.701 200.337 190.111 198.277C192.013 195.497 193.763 192.633 195.889 189.999C198.69 186.528 201.631 183.192 205 180.304C208.985 176.889 203.955 182.69 202.889 183.999C199.556 188.089 196.564 193.037 194.222 197.721C193.568 199.028 190.526 202.224 191.278 200.971C193.64 197.033 196.278 193.623 199.5 190.277C203.142 186.495 207.006 182.553 210.389 178.554C212.916 175.567 216.061 171.676 212.5 177.527C208.665 183.827 205.973 190.834 202.028 196.999C201.253 198.209 197.183 203.85 200.5 199.888C206.18 193.103 209.829 185.354 217 179.777C222.196 175.736 217.487 180.154 215.611 182.277C212.586 185.699 210.166 189.713 208.111 193.777C206.971 196.031 204.722 203.08 204.722 200.554C204.722 193.189 216.72 184.483 221.944 181.054C222.034 180.996 225.691 179.359 225.194 180.054C221.159 185.704 215.943 190.774 211.75 196.388C204.644 205.903 211.424 196.858 214.833 193.054C218.125 189.381 221.568 185.64 225.389 182.499C226.385 181.68 228.372 180.665 226.889 182.777C223.809 187.16 213.922 199.796 217.556 195.86C219.82 193.407 225.286 183.332 229.222 183.332C229.9 183.332 227.588 188.506 227.278 188.999C226.4 190.392 219.518 200.931 223.5 195.527C225.73 192.5 229.717 184.277 234.25 184.277C236.371 184.277 218.009 207.056 225.389 197.999C228.141 194.621 230.63 191.196 234 188.388C235.125 187.45 239.359 184.959 237.389 188.388C236.004 190.799 233.689 193.27 232.833 195.943C232.156 198.06 236.609 193.553 238.25 192.054C238.66 191.68 241.577 189.561 241.694 191.082C241.867 193.325 236.996 198.714 237.861 196.638C238.467 195.184 243.831 187.762 243.389 191.443C243.139 193.529 240.475 197.302 243.111 194.665C247.34 190.437 242.885 198.38 243.611 198.165C247.94 196.883 246.185 199.277 249.25 199.277C249.88 199.277 249.678 201.523 250.028 200.999C250.677 200.025 251.244 200.465 251.778 200.999C252.619 201.84 255.563 202.572 255.889 200.943C256.433 198.223 251.979 199.81 250.5 198.054C248.192 195.314 249.283 195.322 244.944 195.804C242.597 196.065 239.137 197.853 236.75 196.527C234.671 195.371 231.502 199.056 230.611 198.165C230.064 197.619 231.02 195.532 229.389 196.499C227.999 197.322 225.927 198.277 224.278 198.277C221.632 198.277 214.921 201.367 216.389 199.165C216.757 198.613 213.403 199.573 213 199.665C211.356 200.041 211.086 198.837 210 198.777C207.816 198.655 206.307 195.469 205.944 195.61C202.951 196.774 198.586 202.459 201 197.027C201.319 196.309 194.261 202.833 198.389 197.277C202.067 192.325 193.39 200.169 193.611 199.777C195.087 197.152 189.018 201.128 187.028 201.999C184.286 203.198 179.176 205.101 183.611 200.665C188.346 195.931 193.04 191.022 198.25 186.777C202.355 183.432 207.697 178.777 213 178.777C216.01 178.777 216.048 180.469 215.389 182.777C213.658 188.835 225.745 172.945 227.028 179.999C227.562 182.934 230.999 179.981 232.778 180.304C237.662 181.192 235.921 183.345 235.111 187.277C234.796 188.806 238.392 186.917 238.972 189.527C239.192 190.515 239.289 194.132 240 193.777" stroke="#3CF90D" stroke-width="3" stroke-linecap="round"/>
<rect x="0.5" y="0.5" width="288.221" height="272.317" rx="4.5" stroke="#7B61FF" stroke-dasharray="10 5"/>
</svg>
