<svg width="290" height="274" viewBox="0 0 290 274" fill="none" xmlns="http://www.w3.org/2000/svg">
<path d="M115 24.2766C122.163 22.497 133.748 18.4013 141.389 20.6654C149.35 23.0242 157.915 24.5862 166.306 22.9988C178.077 20.7718 189.102 22.6884 200.972 22.2488C207.041 22.024 213.083 21.2766 219.167 21.2766C220.789 21.2766 225.631 22.8845 226 21.7766" stroke="black" stroke-width="3" stroke-linecap="round"/>
<path d="M117 24.7766C115.234 33.663 116 39.1132 116 47.3877C116 51.1653 116.251 58.5257 113.5 61.2766" stroke="black" stroke-width="3" stroke-linecap="round"/>
<path d="M117 61.2766C103.236 64.0123 89.5 69.8267 89.5 85.7766C89.5 92.5118 93.2625 98.062 96.7222 103.499C98.9851 107.055 100.079 114.487 105 114.777C108.662 114.992 114.089 116.22 117.5 114.027C123.633 110.084 127.222 103.356 129.611 96.6654C133.251 86.4744 140.306 59.8251 120.5 64.7766" stroke="black" stroke-width="3" stroke-linecap="round"/>
<path d="M108.5 112.777C108.5 136.709 108 161.079 108 184.777" stroke="black" stroke-width="3" stroke-linecap="round"/>
<path d="M106 73.7766C104.914 77.419 99.9225 85.7766 106.25 85.7766C108.716 85.7766 107.877 84.7585 109.111 83.3877C113.445 78.5721 107.509 78.8374 107 75.2766" stroke="black" stroke-width="3" stroke-linecap="round"/>
<path d="M123.5 75.2766C120.851 82.6457 119.043 91.1725 126.5 83.2766C127.608 82.1037 128.5 81.2126 128.5 79.5266C128.5 76.3852 126.436 78.7925 124.5 79.2766" stroke="black" stroke-width="3" stroke-linecap="round"/>
<path d="M118 85.2766C117.896 85.6952 115.395 97.7242 114.5 97.2766" stroke="black" stroke-width="3" stroke-linecap="round"/>
<path d="M105.5 105.277C112.6 101.751 114.095 99.6511 119.111 104.165C120.066 105.025 121 107.883 121 107.277" stroke="black" stroke-width="3" stroke-linecap="round"/>
<path d="M225.5 23.2766C222.518 34.9119 221 45.2772 221 57.2766C221 69.9096 221.5 82.736 221.5 95.3877C221.5 101.612 222 107.761 222 113.971C222 120.73 220.5 127.344 220.5 134.165C220.5 139.804 220.5 145.443 220.5 151.082C220.5 156.113 219 160.958 219 165.777C219 169.259 220.703 171.777 216.5 171.777C213.53 171.777 208.202 171.25 205.5 172.388C197.226 175.872 190.894 177.769 185.889 185.777C183.447 189.683 178.524 192.344 175.389 195.165C173.477 196.886 170.651 198.463 169 200.527C167.684 202.172 164 205.891 164 202.777" stroke="black" stroke-width="3" stroke-linecap="round"/>
<path d="M217.5 169.777C224.086 172.394 229.288 173.714 234.389 177.888C236.646 179.734 240.21 179.8 242.667 182.165C244.983 184.396 247.501 184.703 249.111 187.777C252.22 193.711 257.148 198.424 261.889 203.165C263.95 205.226 267.618 207.383 268.722 210.11C270.172 213.692 268 214.548 268 212.777" stroke="black" stroke-width="3" stroke-linecap="round"/>
<path d="M167 203.277C174.596 204.409 185.204 207.009 193 205.277C202.527 203.159 212.78 203.277 222.528 203.277C226.976 203.277 231.727 201.911 236.056 202.304C240.303 202.69 244.317 203.277 248.611 203.277C252.666 203.277 260.259 207.018 262.5 204.777" stroke="black" stroke-width="3" stroke-linecap="round"/>
<path d="M174 201.277C178.117 198.181 183.418 194.854 186.111 190.277C186.663 189.338 188.751 186.721 189.75 186.277C191.202 185.631 198.764 179.528 196 183.165C193.313 186.701 190.263 192.466 186.75 195.277C183.531 197.852 181.424 205.985 187 197.777C190.535 192.572 196.245 184.446 202.25 181.777C205.02 180.545 203.079 181.244 201.25 183.777C198.076 188.171 193.01 192.652 190.889 197.665C190.484 198.622 188.701 200.337 190.111 198.277C192.013 195.497 193.763 192.633 195.889 189.999C198.69 186.528 201.631 183.192 205 180.304C208.985 176.889 203.955 182.69 202.889 183.999C199.556 188.089 196.564 193.037 194.222 197.721C193.568 199.028 190.526 202.224 191.278 200.971C193.64 197.033 196.278 193.623 199.5 190.277C203.142 186.495 207.006 182.553 210.389 178.554C212.916 175.567 216.061 171.676 212.5 177.527C208.665 183.827 205.973 190.834 202.028 196.999C201.253 198.209 197.183 203.85 200.5 199.888C206.18 193.103 209.829 185.354 217 179.777C222.196 175.736 217.487 180.154 215.611 182.277C212.586 185.699 210.166 189.713 208.111 193.777C206.971 196.031 204.722 203.08 204.722 200.554C204.722 193.189 216.72 184.483 221.944 181.054C222.034 180.996 225.691 179.359 225.194 180.054C221.159 185.704 215.943 190.774 211.75 196.388C204.644 205.903 211.424 196.858 214.833 193.054C218.125 189.381 221.568 185.64 225.389 182.499C226.385 181.68 228.372 180.665 226.889 182.777C223.809 187.16 213.922 199.796 217.556 195.86C219.82 193.407 225.286 183.332 229.222 183.332C229.9 183.332 227.588 188.506 227.278 188.999C226.4 190.392 219.518 200.931 223.5 195.527C225.73 192.5 229.717 184.277 234.25 184.277C236.371 184.277 218.009 207.056 225.389 197.999C228.141 194.621 230.63 191.196 234 188.388C235.125 187.45 239.359 184.959 237.389 188.388C236.004 190.799 233.689 193.27 232.833 195.943C232.156 198.06 236.609 193.553 238.25 192.054C238.66 191.68 241.577 189.561 241.694 191.082C241.867 193.325 236.996 198.714 237.861 196.638C238.467 195.184 243.831 187.762 243.389 191.443C243.139 193.529 240.475 197.302 243.111 194.665C247.34 190.437 242.885 198.38 243.611 198.165C247.94 196.883 246.185 199.277 249.25 199.277C249.88 199.277 249.678 201.523 250.028 200.999C250.677 200.025 251.244 200.465 251.778 200.999C252.619 201.84 255.563 202.572 255.889 200.943C256.433 198.223 251.979 199.81 250.5 198.054C248.192 195.314 249.283 195.322 244.944 195.804C242.597 196.065 239.137 197.853 236.75 196.527C234.671 195.371 231.502 199.056 230.611 198.165C230.064 197.619 231.02 195.532 229.389 196.499C227.999 197.322 225.927 198.277 224.278 198.277C221.632 198.277 214.921 201.367 216.389 199.165C216.757 198.613 213.403 199.573 213 199.665C211.356 200.041 211.086 198.837 210 198.777C207.816 198.655 206.307 195.469 205.944 195.61C202.951 196.774 198.586 202.459 201 197.027C201.319 196.309 194.261 202.833 198.389 197.277C202.067 192.325 193.39 200.169 193.611 199.777C195.087 197.152 189.018 201.128 187.028 201.999C184.286 203.198 179.176 205.101 183.611 200.665C188.346 195.931 193.04 191.022 198.25 186.777C202.355 183.432 207.697 178.777 213 178.777C216.01 178.777 216.048 180.469 215.389 182.777C213.658 188.835 225.745 172.945 227.028 179.999C227.562 182.934 230.999 179.981 232.778 180.304C237.662 181.192 235.921 183.345 235.111 187.277C234.796 188.806 238.392 186.917 238.972 189.527C239.192 190.515 239.289 194.132 240 193.777" stroke="#3CF90D" stroke-width="3" stroke-linecap="round"/>
<path d="M106 93.2766C108.637 90.4272 112.595 87.4733 113.472 83.5266C113.708 82.4659 112.7 82.2985 113.611 81.3877C114.702 80.2969 114.44 77.9855 115.25 76.5266C117.732 72.0593 112.1 90.2704 113.028 83.7766C113.458 80.7683 114.5 78.0792 114.5 75.0266C114.5 71.7887 112.92 74.0778 113.889 71.3877C114.27 70.3302 113.64 73.0649 115.25 71.7766C116.206 71.0114 115.5 77.6706 115.5 72.7766" stroke="#FC08F2" stroke-width="3" stroke-linecap="round"/>
<path d="M116.5 74.7765C120.134 72.4158 128.26 65.4499 128.5 69.7765C128.582 71.2512 128.154 73.969 129.111 75.1654C130.663 77.1049 129.511 82.603 128.972 85.0265C128.072 89.0769 128.205 91.7933 125.111 94.8876C120.854 99.1452 126.761 84.4399 122.5 94.0265C121.906 95.3636 119.916 89.2251 121.75 92.5265C122.584 94.0275 122.993 91.9913 123.389 92.3876C123.971 92.9695 122.787 94.6544 123.028 95.4987C124.77 101.597 121.301 94.6896 121.5 98.2765C121.617 100.376 123.021 101.635 124 99.5543C124.658 98.156 124.264 96.7579 125.222 95.5265C125.472 95.2049 124.326 95.7433 124 95.4987C122.506 94.3781 123.588 92.2106 121.722 93.2765C119.053 94.8018 121.541 94.3591 122 95.2765" stroke="#FC08F2" stroke-width="3" stroke-linecap="round"/>
<path d="M104.5 96.2766C102.216 94.8648 96.3585 92.5832 95.1111 89.7766C95.0665 89.6761 94.6984 87.9789 94.5278 88.8321C94.2586 90.1781 95.0215 92.3977 95.7222 93.4988C97.424 96.173 99.853 96.0638 100 92.3877C100.056 90.9918 100.366 93.5121 100.778 93.2766C102.301 92.4059 99.2171 92.3743 98.7778 92.2488C97.5925 91.9101 99.761 92.008 99.6945 91.971C98.1042 91.0875 97.1108 89.576 96.25 88.0266C94.791 85.4004 94.1978 82.6054 95.3889 79.7766C96.6468 76.789 98.7353 75.6549 97.6111 80.2766C97.0301 82.6652 98 91.0903 98 84.4988C98 80.893 98.2477 78.7869 98.9722 75.5266C99.1497 74.7282 97.9152 81.7915 98 84.1654C98.0819 86.4578 97.5231 92.7894 99.75 94.0266C103.796 96.2745 101.434 90.5647 102.111 89.8877C102.905 89.0933 104.549 90.4225 105.5 89.8877C106.042 89.5826 103.991 88.2766 103.5 88.2766C102.332 88.2766 103.91 90.3097 103.972 90.8043C104.204 92.6576 103.41 94.3071 103.028 96.0266C102.603 97.9367 103.691 95.7811 104.694 94.5543C105.092 94.0687 101.544 97.4648 100.806 98.4988C100.109 99.4739 102.386 96.6546 103.389 95.9988C104.967 94.9673 104.774 97.2249 105.722 96.2766C106.531 95.4677 107.9 92.2534 107.389 93.2766C106.77 94.514 105.543 96.1908 104 96.2766C97.934 96.6136 100.056 86.815 98.1111 82.2766C95.976 77.2946 101.444 72.468 105.25 70.7766C107.156 69.9294 110.339 68.3903 112.5 68.2766C116.959 68.0419 114.328 69.4916 114 72.2766C113.751 74.3908 109.11 69.0971 111.778 72.5266C112.771 73.8037 112.338 74.7342 110.75 73.4988C109.423 72.4663 112.751 73.4177 112.972 73.971C113.523 75.3468 112.484 70.884 111.5 69.7766C110.484 68.6336 112.876 67.3357 114 67.2766C117.167 67.1098 118.431 66.6545 117.472 70.971C117.233 72.0494 114.721 75.8334 117.389 73.1654C118.134 72.4199 123.994 70.7766 121 70.7766C118.252 70.7766 118.5 75.7731 118.5 77.5266C118.5 81.4028 118.374 80.2183 118.972 77.5266C120.562 70.3738 116.469 68.2766 110.5 68.2766" stroke="#FC08F2" stroke-width="3" stroke-linecap="round"/>
</svg>
