<svg width="247" height="274" viewBox="0 0 247 274" fill="none" xmlns="http://www.w3.org/2000/svg">
<path d="M115.5 24.5C122.663 22.7204 134.248 18.6248 141.889 20.8889C149.85 23.2476 158.415 24.8096 166.806 23.2222C178.577 20.9952 189.602 22.9119 201.472 22.4722C207.541 22.2475 213.583 21.5 219.667 21.5C221.289 21.5 226.131 23.1079 226.5 22" stroke="black" stroke-width="3" stroke-linecap="round"/>
<path d="M117.5 25C115.734 33.8865 116.5 39.3367 116.5 47.6111C116.5 51.3888 116.751 58.7491 114 61.5" stroke="black" stroke-width="3" stroke-linecap="round"/>
<path d="M117.5 61.5C103.736 64.2358 90 70.0502 90 86C90 92.7352 93.7625 98.2855 97.2222 103.722C99.4851 107.278 100.579 114.711 105.5 115C109.162 115.215 114.589 116.443 118 114.25C124.133 110.308 127.722 103.579 130.111 96.8889C133.751 86.6979 140.806 60.0486 121 65" stroke="black" stroke-width="3" stroke-linecap="round"/>
<path d="M109 113C109 136.933 108.5 161.303 108.5 185" stroke="black" stroke-width="3" stroke-linecap="round"/>
<path d="M109.5 157.5C117.868 153.125 124.197 149.543 131.278 143.75C135.076 140.643 140.289 138.933 143.611 135.611C147.494 131.729 146.471 129.615 148.25 124.278C149.288 121.162 156.331 109.022 161 115.889C162.698 118.386 160.131 119.665 159.528 121.778C158.904 123.962 163.216 122.318 164.472 122.528C166.804 122.916 164.937 127.404 164.389 128.5C162.948 131.382 165.399 132.438 165.889 135.5C166.148 137.121 164.084 141.924 163.222 143.278C161.091 146.627 159.023 149.5 154.75 149.5C151.597 149.5 149.612 148.73 148 146.111C147.636 145.52 147.271 138.458 146.5 140" stroke="black" stroke-width="3" stroke-linecap="round"/>
<path d="M106.5 157.5C97.3259 151.098 87.8933 145.477 80.5 137.028C77.3556 133.434 72 133.543 72 128.5C72 123.782 73.6886 120.787 68.9722 117.25C65.8609 114.916 59.8758 112 56 112C49.6486 112 52.9097 119.04 50.75 120C43.9015 123.044 47.3619 127.667 47.5 132.5C47.7877 142.568 70 138.763 70 136" stroke="black" stroke-width="3" stroke-linecap="round"/>
</svg>
