<svg width="247" height="274" viewBox="0 0 247 274" fill="none" xmlns="http://www.w3.org/2000/svg">
<path d="M115.5 24.5C122.663 22.7204 134.248 18.6248 141.889 20.8889C149.85 23.2476 158.415 24.8096 166.806 23.2222C178.577 20.9952 189.602 22.9119 201.472 22.4722C207.541 22.2475 213.583 21.5 219.667 21.5C221.289 21.5 226.131 23.1079 226.5 22" stroke="black" stroke-width="3" stroke-linecap="round"/>
<path d="M117.5 25C115.734 33.8865 116.5 39.3367 116.5 47.6111C116.5 51.3888 116.751 58.7491 114 61.5" stroke="black" stroke-width="3" stroke-linecap="round"/>
<path d="M117.5 61.5C103.736 64.2358 90 70.0502 90 86C90 92.7352 93.7625 98.2855 97.2222 103.722C99.4851 107.278 100.579 114.711 105.5 115C109.162 115.215 114.589 116.443 118 114.25C124.133 110.308 127.722 103.579 130.111 96.8889C133.751 86.6979 140.806 60.0486 121 65" stroke="black" stroke-width="3" stroke-linecap="round"/>
</svg>
