<svg width="261" height="245" viewBox="0 0 261 245" fill="none" xmlns="http://www.w3.org/2000/svg">
<g filter="url(#filter0_d_4_28)">
<path d="M101 6.27655C108.163 4.49696 119.748 0.401328 127.389 2.66544C135.35 5.02419 143.915 6.5862 152.306 4.99878C164.077 2.7718 175.102 4.6884 186.972 4.24878C193.041 4.02401 199.083 3.27655 205.167 3.27655C206.789 3.27655 211.631 4.88447 212 3.77655" stroke="black" stroke-width="3" stroke-linecap="round"/>
<path d="M103 6.77655C101.234 15.663 102 21.1132 102 29.3877C102 33.1653 102.251 40.5257 99.5 43.2766" stroke="black" stroke-width="3" stroke-linecap="round"/>
<path d="M103 43.2766C89.2357 46.0123 75.5 51.8267 75.5 67.7766C75.5 74.5118 79.2625 80.062 82.7222 85.4988C84.9851 89.0547 86.0786 96.4871 91 96.7766C94.6617 96.9919 100.089 98.2196 103.5 96.0266C109.633 92.0841 113.222 85.3558 115.611 78.6654C119.251 68.4744 126.306 41.8251 106.5 46.7766" stroke="black" stroke-width="3" stroke-linecap="round"/>
<path d="M94.5 94.7766C94.5 118.709 94 143.079 94 166.777" stroke="black" stroke-width="3" stroke-linecap="round"/>
<path d="M95 139.277C103.368 134.901 109.697 131.32 116.778 125.527C120.576 122.419 125.789 120.71 129.111 117.388C132.994 113.505 131.971 111.392 133.75 106.054C134.788 102.939 141.831 90.7988 146.5 97.6654C148.198 100.163 145.631 101.441 145.028 103.554C144.404 105.739 148.716 104.095 149.972 104.304C152.304 104.693 150.437 109.18 149.889 110.277C148.448 113.158 150.899 114.215 151.389 117.277C151.648 118.897 149.584 123.7 148.722 125.054C146.591 128.403 144.523 131.277 140.25 131.277C137.097 131.277 135.112 130.507 133.5 127.888C133.136 127.297 132.771 120.234 132 121.777" stroke="black" stroke-width="3" stroke-linecap="round"/>
<path d="M92 139.277C82.8259 132.874 73.3933 127.254 66 118.804C62.8556 115.211 57.5 115.319 57.5 110.277C57.5 105.559 59.1886 102.564 54.4722 99.0266C51.3609 96.693 45.3758 93.7766 41.5 93.7766C35.1486 93.7766 38.4097 100.817 36.25 101.777C29.4015 104.82 32.8619 109.443 33 114.277C33.2877 124.344 55.5 120.54 55.5 117.777" stroke="black" stroke-width="3" stroke-linecap="round"/>
<path d="M93 165.777C94.8578 171.056 96.1163 175.497 99.3889 179.777C101.256 182.219 103.042 184.581 104.278 187.443C106.078 191.612 109.81 194.816 111.528 199.11C114.459 206.437 117.808 212.551 122.611 218.777C124.236 220.882 125.02 223.146 125.889 225.665C126.246 226.7 125.53 228.385 126.25 229.249C127.266 230.468 136.249 214.629 137.611 212.777C142.024 206.774 148.169 201.584 152.111 195.277C153.814 192.551 155.771 196.282 156.111 197.388C157.178 200.854 155.645 202.623 154.278 205.749C152.154 210.602 150.058 215.83 145.75 219.277C144.175 220.537 146.774 224.841 146.472 226.499C146.094 228.581 143.839 232.03 141.5 232.277C138.283 232.615 134.735 237.616 132.25 234.027C130.238 231.12 130.349 226.777 127 226.777" stroke="black" stroke-width="3" stroke-linecap="round"/>
<path d="M92 165.277C87.8385 178.95 83.3581 189.642 75.7778 201.554C74.6021 203.402 66.3368 220.464 63.75 219.027C59.7186 216.787 54.8186 215.968 51.3889 212.665C47.731 209.143 42.9029 206.491 38.4722 204.054C34.0448 201.619 29.9825 198.629 25.5 196.388C22.8956 195.085 22.4396 189.298 19.7778 187.777C16.9316 186.15 15.3846 183.227 11.75 186.054C7.39344 189.443 6 195.425 6 200.665C6 210.928 15.2413 211.777 24.3889 211.777C26.8649 211.777 28.2968 211.782 30.3889 213.277C33.7572 215.682 36.593 215.814 40.4722 217.027C42.6302 217.701 44.6614 218.041 46.2778 219.804C47.4072 221.036 49.1645 223.675 51 223.777C52.5262 223.861 54.0822 223.777 55.6111 223.777C59.0916 223.777 59.9524 222.112 62.7778 221.304C64.6377 220.773 69 217.816 69 216.277" stroke="black" stroke-width="3" stroke-linecap="round"/>
<path d="M92 55.7766C90.9141 59.419 85.9225 67.7766 92.25 67.7766C94.7159 67.7766 93.8774 66.7585 95.1111 65.3877C99.4451 60.5721 93.5087 60.8374 93 57.2766" stroke="black" stroke-width="3" stroke-linecap="round"/>
<path d="M109.5 57.2766C106.851 64.6457 105.043 73.1725 112.5 65.2766C113.608 64.1037 114.5 63.2126 114.5 61.5266C114.5 58.3852 112.436 60.7925 110.5 61.2766" stroke="black" stroke-width="3" stroke-linecap="round"/>
<path d="M104 67.2766C103.896 67.6952 101.395 79.7242 100.5 79.2766" stroke="black" stroke-width="3" stroke-linecap="round"/>
<path d="M91.5 87.2765C98.5999 83.7511 100.095 81.6511 105.111 86.1654C106.066 87.0246 107 89.8831 107 89.2765" stroke="black" stroke-width="3" stroke-linecap="round"/>
<path d="M211.5 5.27655C208.518 16.9119 207 27.2772 207 39.2766C207 51.9096 207.5 64.736 207.5 77.3877C207.5 83.6115 208 89.7612 208 95.971C208 102.73 206.5 109.344 206.5 116.165C206.5 121.804 206.5 127.443 206.5 133.082C206.5 138.113 205 142.958 205 147.777C205 151.259 206.703 153.777 202.5 153.777C199.53 153.777 194.202 153.25 191.5 154.388C183.226 157.872 176.894 159.769 171.889 167.777C169.447 171.683 164.524 174.344 161.389 177.165C159.477 178.886 156.651 180.463 155 182.527C153.684 184.172 150 187.891 150 184.777" stroke="black" stroke-width="3" stroke-linecap="round"/>
<path d="M203.5 151.777C210.086 154.394 215.288 155.714 220.389 159.888C222.646 161.734 226.21 161.8 228.667 164.165C230.983 166.396 233.501 166.703 235.111 169.777C238.22 175.711 243.148 180.424 247.889 185.165C249.95 187.226 253.618 189.383 254.722 192.11C256.172 195.692 254 196.548 254 194.777" stroke="black" stroke-width="3" stroke-linecap="round"/>
<path d="M153 185.277C160.596 186.409 171.204 189.009 179 187.277C188.527 185.159 198.78 185.277 208.528 185.277C212.976 185.277 217.727 183.911 222.056 184.304C226.303 184.691 230.317 185.277 234.611 185.277C238.666 185.277 246.259 189.018 248.5 186.777" stroke="black" stroke-width="3" stroke-linecap="round"/>
<path d="M160 183.277C164.117 180.181 169.418 176.854 172.111 172.277C172.663 171.338 174.751 168.721 175.75 168.277C177.202 167.631 184.764 161.528 182 165.165C179.313 168.701 176.263 174.466 172.75 177.277C169.531 179.852 167.424 187.985 173 179.777C176.535 174.572 182.245 166.446 188.25 163.777C191.02 162.545 189.079 163.244 187.25 165.777C184.076 170.171 179.01 174.652 176.889 179.665C176.484 180.622 174.701 182.337 176.111 180.277C178.013 177.497 179.763 174.633 181.889 171.999C184.69 168.528 187.631 165.192 191 162.304C194.985 158.889 189.955 164.69 188.889 165.999C185.556 170.089 182.564 175.037 180.222 179.721C179.568 181.028 176.526 184.224 177.278 182.971C179.64 179.033 182.278 175.623 185.5 172.277C189.142 168.495 193.006 164.553 196.389 160.554C198.916 157.567 202.061 153.676 198.5 159.527C194.665 165.827 191.973 172.834 188.028 178.999C187.253 180.209 183.183 185.85 186.5 181.888C192.18 175.103 195.829 167.354 203 161.777C208.196 157.736 203.487 162.154 201.611 164.277C198.586 167.699 196.166 171.713 194.111 175.777C192.971 178.031 190.722 185.08 190.722 182.554C190.722 175.189 202.72 166.483 207.944 163.054C208.034 162.996 211.691 161.359 211.194 162.054C207.159 167.704 201.943 172.774 197.75 178.388C190.644 187.903 197.424 178.858 200.833 175.054C204.125 171.381 207.568 167.64 211.389 164.499C212.385 163.68 214.372 162.665 212.889 164.777C209.809 169.16 199.922 181.796 203.556 177.86C205.82 175.407 211.286 165.332 215.222 165.332C215.9 165.332 213.588 170.506 213.278 170.999C212.4 172.392 205.518 182.931 209.5 177.527C211.73 174.5 215.717 166.277 220.25 166.277C222.371 166.277 204.009 189.056 211.389 179.999C214.141 176.621 216.63 173.196 220 170.388C221.125 169.45 225.359 166.959 223.389 170.388C222.004 172.799 219.689 175.27 218.833 177.943C218.156 180.06 222.609 175.553 224.25 174.054C224.66 173.68 227.577 171.561 227.694 173.082C227.867 175.325 222.996 180.714 223.861 178.638C224.467 177.184 229.831 169.762 229.389 173.443C229.139 175.529 226.475 179.302 229.111 176.665C233.34 172.437 228.885 180.38 229.611 180.165C233.94 178.883 232.185 181.277 235.25 181.277C235.88 181.277 235.678 183.523 236.028 182.999C236.677 182.025 237.244 182.465 237.778 182.999C238.619 183.84 241.563 184.572 241.889 182.943C242.433 180.223 237.979 181.81 236.5 180.054C234.192 177.314 235.283 177.322 230.944 177.804C228.597 178.065 225.137 179.853 222.75 178.527C220.671 177.371 217.502 181.056 216.611 180.165C216.064 179.619 217.02 177.532 215.389 178.499C213.999 179.322 211.927 180.277 210.278 180.277C207.632 180.277 200.921 183.367 202.389 181.165C202.757 180.613 199.403 181.573 199 181.665C197.356 182.041 197.086 180.837 196 180.777C193.816 180.655 192.307 177.469 191.944 177.61C188.951 178.774 184.586 184.459 187 179.027C187.319 178.309 180.261 184.833 184.389 179.277C188.067 174.325 179.39 182.169 179.611 181.777C181.087 179.152 175.018 183.128 173.028 183.999C170.286 185.198 165.176 187.101 169.611 182.665C174.346 177.931 179.04 173.022 184.25 168.777C188.355 165.432 193.697 160.777 199 160.777C202.01 160.777 202.048 162.469 201.389 164.777C199.658 170.835 211.745 154.945 213.028 161.999C213.562 164.934 216.999 161.981 218.778 162.304C223.662 163.192 221.921 165.345 221.111 169.277C220.796 170.806 224.392 168.917 224.972 171.527C225.192 172.515 225.289 176.132 226 175.777" stroke="#3CF90D" stroke-width="3" stroke-linecap="round"/>
<path d="M134.5 224.777C137.933 221.118 148.229 210.17 144.5 213.527C141.975 215.799 135.992 225.428 141.778 216.888C145.928 210.761 142.302 215.883 140.111 218.165C138.531 219.812 143.972 209.917 143.25 212.082C141.424 217.559 145.104 211.241 146.667 209.11C148.022 207.262 149.681 207.068 150.5 205.277C151.696 202.66 151.638 201.304 151.5 204.888C151.348 208.831 152 205.362 152 203.554C152 201.299 150.007 209.418 149.5 210.721C148.484 213.335 146.949 216.245 145.222 218.443C144.194 219.752 145.561 216.258 145.5 215.832C145.008 212.39 139.856 228.488 141.722 225.554C144.339 221.443 141.596 223.406 140.5 226.693C140.207 227.573 140.271 225.55 140.389 225.165C141.04 223.05 139.335 224.699 138.778 225.388C133.952 231.348 138.847 223.903 137.5 225.888C134.05 230.972 137.444 226.815 137.444 224.582C137.444 223.706 136.619 226.157 136 226.777C135.042 227.735 134.932 226.798 135.25 225.971C135.322 225.783 136.072 222.978 135.889 222.999C135.575 223.034 134.053 225.559 134.389 224.777C139.105 213.772 130.704 227.822 137.806 217.443C141.897 211.463 147.726 207.168 151.389 201.11C151.692 200.608 154.4 197.583 153.5 199.277C151.458 203.12 150.821 207.442 149.25 211.527C147.794 215.313 143.825 227.253 141 228.665C139.722 229.304 138.537 230.848 137 230.165C135.187 229.359 135.977 226.02 135.222 225.804C132.755 225.099 133.366 231.488 132.972 232.471C132.363 233.994 132.865 228.686 131.5 227.777" stroke="#815707" stroke-width="3" stroke-linecap="round"/>
<path d="M14.5 195.777C19.5108 203.49 20.1645 205.277 28 205.277C31.0334 205.277 32.9848 206.186 35.5 207.665C38.2513 209.284 40.1393 211.116 43 212.388C45.242 213.384 46.3979 217.777 48.75 217.777C49.637 217.777 55.5927 218.646 54.7222 217.527C52.7358 214.973 49.591 214.213 47.5 211.999C46.4917 210.931 46.719 209.475 45.3889 208.554C43.3351 207.132 41.8827 207.675 39.6111 206.777C37.7082 206.024 35.9755 205.046 34 204.388C32.4614 203.875 28.7134 206.817 27.2778 204.971C26.6053 204.106 23.928 194.832 22.7222 194.832C20.662 194.832 23.8128 198.247 21.4444 197.721C19.8972 197.377 15.6049 193.141 17 195.777C18.113 197.879 19.5019 204.879 18.3889 202.777C16.9349 200.03 16.4393 196.315 16.5 193.221C16.5778 189.255 19.985 193.049 17.8889 193.888C15.0015 195.043 14.4324 191.869 13.2778 190.054C12.7749 189.264 13 193.589 13 194.527C13 195.633 11.2046 199.426 11.75 199.971C12.0662 200.287 13 192.845 13 192.027C13 188.885 11.1122 190.645 11 192.777C10.8267 196.068 10.7371 205.951 11 202.665C11.2727 199.257 12.4213 188.267 9.27777 197.249C8.03342 200.804 8.65629 204.839 12.2778 203.804C16.5512 202.583 16.7008 200.408 17.75 195.582C18.362 192.767 15.3554 204.721 17.2222 204.721C19.2013 204.721 17.0772 194.243 17 192.777C16.6078 185.326 16.9644 196.358 17 198.777C17.043 201.7 17.2178 202.499 18.7778 204.665C19.5778 205.777 23.1201 207.149 20.75 206.027C19.0205 205.207 17.6612 203.978 16.5 202.527C15.826 201.684 13.4882 203.862 15.5 205.443C18.9644 208.165 22.5374 201.687 25.5 201.777C26.29 201.8 28.4464 205.526 28.6667 205.054C28.747 204.882 25.1261 201.649 27.1111 202.999C30.9234 205.591 37.6199 208.163 30.5 202.527C26.5619 199.409 39.327 211.304 34.7778 207.582C32.754 205.926 30.3362 204.255 27.7778 203.582C25.1621 202.894 25.2087 205.985 26.5 207.277C27.8145 208.591 35.5682 210.68 37.5 210.777C45.1768 211.16 36.1231 210.892 38.8055 211.304C41.082 211.655 44.1048 211.219 45.7222 213.027C46.2422 213.608 48.7688 215.631 48.9444 216.027C50.2944 219.064 50.1484 219.601 53.5 221.277" stroke="#815707" stroke-width="3" stroke-linecap="round"/>
<path d="M141 121.777C140.706 120.931 136.16 106.517 139.222 113.61C140.146 115.748 141.5 117.233 141.5 119.693C141.5 121.489 141.5 116.101 141.5 114.304C141.5 110.551 141.5 115.108 141.5 116.277" stroke="#DAFC08" stroke-width="3" stroke-linecap="round"/>
<path d="M138 122.277C138.283 116.591 138.5 110.959 138.5 105.277C138.5 101.992 139.461 113.087 139.5 114.554C139.675 121.198 141.747 112.133 143.5 110.277C145.874 107.763 140.879 116.686 139.889 119.999C139.611 120.928 137.748 127.78 139.75 123.777C141.851 119.575 142 108.478 142 119.804C142 124.179 142.287 127.72 144.222 121.388C144.49 120.511 145 115.916 145 118.665C145 125.248 142.667 121.332 145.5 118.499C146.365 117.634 144.799 121.252 145.611 122.165C145.926 122.52 144.966 117.381 144.75 116.804C144.019 114.855 142.968 109.034 146.25 108.304C147.07 108.122 145.554 109.424 145.25 110.277C144.517 112.328 144.332 119.505 142.5 120.277C141.769 120.584 137.559 121.599 137.389 121.277C136.722 120.018 136.69 114.707 136.25 114.804C133.447 115.427 134 117.2 134 113.027C134 110.285 136.547 106.568 138 104.388C144.772 94.2302 139.439 111.18 138.472 116.499C138.032 118.923 134.526 127.777 139.75 127.777C140.833 127.777 143.27 123.507 144.25 122.527C146.125 120.651 146.622 119.899 145.5 118.777C143.631 116.907 144.066 113.366 145.111 111.277C145.544 110.411 149.395 106.777 148.25 106.777C145.166 106.777 141.476 112.936 142.25 115.721C143.349 119.676 144.01 119.169 142.111 122.777C139.698 127.361 141.872 125.946 144.389 122.777C146.228 120.461 148.409 118.036 145.222 115.304C142.654 113.103 144.842 111.08 146 109.054C147.413 106.581 139.785 112.175 137.389 112.665C133.328 113.496 138.008 106.76 139 104.777C139.268 104.24 144.13 96.9892 140 99.0544C132.215 102.947 132 113.077 132 120.277" stroke="#DAFC08" stroke-width="3" stroke-linecap="round"/>
<path d="M42.5 110.777C42.3314 106.253 40.3508 98.9529 46.5 99.2765C49.2001 99.4186 49.8988 103.173 49.25 105.249C48.5862 107.373 49 110.043 49 112.277C49 113.009 51.0069 115.956 51.6944 114.443C54.4731 108.33 36.399 105.718 42 114.943C42.9911 116.576 55.2295 104.253 55.9444 103.61C57.0285 102.634 64.2889 97.5757 59.6944 100.804C56.407 103.114 53.5296 105.626 50.5 108.277" stroke="#DAFC08" stroke-width="3" stroke-linecap="round"/>
<path d="M39 110.777C40.1374 109.366 46.7217 95.2138 49.25 103.304C49.7615 104.941 50.3814 111.942 48.5 112.749C46.5547 113.582 42.7085 114.77 40.5 113.665C38.2788 112.555 36.4464 108.277 34 108.277C30.5527 108.277 34.3973 112.504 35.75 112.804C37.9771 113.299 41.4987 113.775 43.25 115.527C50.1573 122.434 49.9211 109.149 48.3889 105.165C48.2004 104.675 43.7573 97.001 43.0278 99.5543C42.192 102.48 43.1593 104.811 42 107.999C40.8003 111.298 38.6244 104.763 42 102.888C45.8784 100.733 45.655 104.154 48.2778 106.777C49.8848 108.384 50.3644 111.668 51.75 112.777C52.3616 113.266 51.5 107.533 51.5 105.277C51.5 101.332 48.9237 107.631 46.7778 109.777C45.0497 111.505 41.1012 114.945 39.5 112.277" stroke="#DAFC08" stroke-width="3" stroke-linecap="round"/>
<path d="M92 75.2766C94.6374 72.4272 98.5952 69.4733 99.4722 65.5266C99.7079 64.4659 98.7003 64.2985 99.6111 63.3877C100.702 62.2969 100.44 59.9855 101.25 58.5266C103.732 54.0593 98.1001 72.2704 99.0278 65.7766C99.4575 62.7683 100.5 60.0792 100.5 57.0266C100.5 53.7887 98.9204 56.0778 99.8889 53.3877C100.27 52.3302 99.6396 55.0649 101.25 53.7766C102.206 53.0114 101.5 59.6706 101.5 54.7766" stroke="#FC08F2" stroke-width="3" stroke-linecap="round"/>
<path d="M102.5 56.7766C106.134 54.4159 114.26 47.4499 114.5 51.7766C114.582 53.2512 114.154 55.969 115.111 57.1654C116.663 59.1049 115.511 64.603 114.972 67.0266C114.072 71.0769 114.205 73.7933 111.111 76.8877C106.854 81.1452 112.761 66.4399 108.5 76.0266C107.906 77.3636 105.916 71.2251 107.75 74.5266C108.584 76.0275 108.993 73.9914 109.389 74.3877C109.971 74.9695 108.787 76.6544 109.028 77.4988C110.77 83.5969 107.301 76.6896 107.5 80.2766C107.617 82.3759 109.021 83.635 110 81.5543C110.658 80.156 110.264 78.758 111.222 77.5266C111.472 77.2049 110.326 77.7433 110 77.4988C108.506 76.3781 109.588 74.2106 107.722 75.2766C105.053 76.8018 107.541 76.3592 108 77.2766" stroke="#FC08F2" stroke-width="3" stroke-linecap="round"/>
<path d="M90.5 78.2766C88.2159 76.8648 82.3585 74.5832 81.1111 71.7766C81.0665 71.6761 80.6984 69.9789 80.5278 70.8321C80.2586 72.1781 81.0215 74.3977 81.7222 75.4988C83.424 78.173 85.853 78.0638 86 74.3877C86.0558 72.9918 86.3656 75.5121 86.7778 75.2766C88.3015 74.4059 85.2171 74.3743 84.7778 74.2488C83.5925 73.9101 85.761 74.008 85.6945 73.971C84.1042 73.0875 83.1108 71.576 82.25 70.0266C80.791 67.4004 80.1978 64.6054 81.3889 61.7766C82.6468 58.789 84.7353 57.6549 83.6111 62.2766C83.0301 64.6652 84 73.0903 84 66.4988C84 62.893 84.2477 60.7869 84.9722 57.5266C85.1497 56.7282 83.9152 63.7915 84 66.1654C84.0819 68.4578 83.5231 74.7894 85.75 76.0266C89.7963 78.2745 87.4341 72.5647 88.1111 71.8877C88.9055 71.0933 90.5492 72.4225 91.5 71.8877C92.0423 71.5826 89.9913 70.2766 89.5 70.2766C88.3323 70.2766 89.9104 72.3097 89.9722 72.8043C90.2039 74.6576 89.4099 76.3071 89.0278 78.0266C88.6033 79.9367 89.6907 77.7811 90.6945 76.5543C91.0918 76.0687 87.5441 79.4648 86.8056 80.4988C86.1091 81.4739 88.3859 78.6546 89.3889 77.9988C90.9665 76.9673 90.7739 79.2249 91.7222 78.2766C92.5311 77.4677 93.9005 74.2534 93.3889 75.2766C92.7702 76.514 91.5431 78.1908 90 78.2766C83.934 78.6136 86.0562 68.815 84.1111 64.2766C81.976 59.2946 87.4443 54.468 91.25 52.7766C93.1562 51.9294 96.3391 50.3903 98.5 50.2766C102.959 50.0419 100.328 51.4916 100 54.2766C99.7513 56.3908 95.1104 51.0971 97.7778 54.5266C98.7711 55.8037 98.3384 56.7342 96.75 55.4988C95.4226 54.4663 98.7509 55.4177 98.9722 55.971C99.5226 57.3468 98.4844 52.884 97.5 51.7766C96.4841 50.6336 98.8761 49.3357 100 49.2766C103.167 49.1098 104.431 48.6545 103.472 52.971C103.233 54.0494 100.721 57.8334 103.389 55.1654C104.134 54.4199 109.994 52.7766 107 52.7766C104.252 52.7766 104.5 57.7731 104.5 59.5266C104.5 63.4028 104.374 62.2183 104.972 59.5266C106.562 52.3738 102.469 50.2766 96.5 50.2766" stroke="#FC08F2" stroke-width="3" stroke-linecap="round"/>
</g>
<defs>
<filter id="filter0_d_4_28" x="0.5" y="0.500214" width="260.221" height="244.317" filterUnits="userSpaceOnUse" color-interpolation-filters="sRGB">
<feFlood flood-opacity="0" result="BackgroundImageFix"/>
<feColorMatrix in="SourceAlpha" type="matrix" values="0 0 0 0 0 0 0 0 0 0 0 0 0 0 0 0 0 0 127 0" result="hardAlpha"/>
<feOffset dy="4"/>
<feGaussianBlur stdDeviation="2"/>
<feComposite in2="hardAlpha" operator="out"/>
<feColorMatrix type="matrix" values="0 0 0 0 0 0 0 0 0 0 0 0 0 0 0 0 0 0 0.25 0"/>
<feBlend mode="normal" in2="BackgroundImageFix" result="effect1_dropShadow_4_28"/>
<feBlend mode="normal" in="SourceGraphic" in2="effect1_dropShadow_4_28" result="shape"/>
</filter>
</defs>
</svg>
